# 3ds Max Wavefront OBJ Exporter v0.97b - (c)2007 guruware
# File Created: 02.08.2016 13:01:03

#
# object sf_plant001
#

v  0.000000 0.000000 -0.000000
v  0.000000 0.033967 -0.068830
v  -0.017158 0.000000 -0.000000
v  -0.069401 0.014463 -0.072709
v  0.000000 0.046005 -0.129346
v  0.036110 0.040465 -0.193358
v  0.000000 0.050697 -0.191323
v  0.069401 0.026500 -0.133225
v  0.017158 0.000000 -0.000000
v  0.069401 0.014463 -0.072709
v  -0.036110 0.040465 -0.193358
v  -0.069401 0.026500 -0.133225
v  0.016056 0.064171 -0.133065
v  -0.016357 0.008852 -0.016868
v  0.083235 0.054516 -0.052106
v  0.151663 0.078128 -0.106071
v  0.253595 0.059548 -0.136013
v  0.219707 0.091893 -0.164832
v  0.216803 0.016178 -0.050578
v  0.016357 -0.008852 0.016868
v  0.148375 -0.007434 0.003387
v  0.184749 0.096804 -0.207009
v  0.084484 0.087783 -0.187030
v  0.037106 0.046290 0.036820
v  0.012498 -0.002964 -0.008869
v  0.089998 0.018541 0.009513
v  0.069938 0.071698 0.074595
v  0.078580 0.089141 0.138754
v  0.103653 0.091172 0.115596
v  0.021730 0.067924 0.119034
v  -0.012498 0.002964 0.008869
v  -0.011103 0.042516 0.081259
v  0.131182 0.076667 0.101425
v  0.122830 0.043950 0.047288
v  0.049537 0.109034 -0.015708
v  0.000258 -0.003965 -0.026707
v  0.074822 0.073453 -0.120597
v  0.136738 0.166854 -0.025453
v  0.244539 0.176205 0.016304
v  0.231808 0.183825 -0.040953
v  0.161126 0.152453 0.084569
v  -0.000258 0.003965 0.026707
v  0.072733 0.105527 0.095452
v  0.229191 0.160354 -0.095182
v  0.131629 0.121988 -0.129702
v  -0.031843 0.063886 -0.076875
v  -0.021666 -0.000000 0.008974
v  -0.123458 0.038775 -0.050185
v  -0.049465 0.105801 -0.248385
v  -0.061658 0.096159 -0.148857
v  0.021996 0.071047 -0.194766
v  -0.092973 0.118975 -0.224457
v  0.021666 0.000000 -0.008974
v  0.051812 0.038775 -0.122784
v  -0.140658 0.105801 -0.210611
v  -0.153274 0.071047 -0.122167
v  -0.049127 0.086577 0.003871
v  0.010772 0.005273 0.018765
v  -0.020287 0.091266 0.092900
v  -0.117708 0.131050 0.032683
v  -0.211619 0.121874 0.048407
v  -0.182111 0.145892 0.078939
v  -0.174401 0.085085 -0.026079
v  -0.010772 -0.005273 -0.018765
v  -0.107424 0.048610 -0.058896
v  -0.155173 0.144926 0.119599
v  -0.065915 0.129390 0.110750
v  -0.044643 0.039583 0.036269
v  0.010718 0.001825 0.011200
v  -0.004342 0.030061 0.087243
v  -0.149335 0.058255 0.087630
v  -0.084338 0.058457 0.071178
v  -0.130737 0.034168 0.031551
v  -0.125180 0.070966 0.108224
v  -0.010718 -0.001825 -0.011200
v  -0.091042 0.015294 -0.003358
v  -0.104225 0.065939 0.134770
v  -0.044037 0.048935 0.122152
v  -0.014327 0.084829 -0.016262
v  0.003408 0.003698 0.018655
v  -0.010329 0.094076 0.064174
v  -0.077016 0.089079 -0.082151
v  -0.114211 0.155205 -0.008851
v  -0.050160 0.127911 -0.015975
v  -0.128227 0.134921 -0.043251
v  -0.003408 -0.003698 -0.018655
v  -0.037900 0.064158 -0.086733
v  -0.110735 0.155983 0.033322
v  -0.043397 0.129561 0.065018
v  0.074770 0.038775 0.110317
v  0.023001 -0.000000 0.004575
v  -0.016233 0.063886 0.081610
v  -0.031433 0.096159 0.158025
v  -0.096867 0.105801 0.234006
v  -0.047397 0.118975 0.238282
v  -0.126495 0.071047 0.149722
v  -0.023001 0.000000 -0.004575
v  -0.111295 0.038775 0.073306
v  -0.000057 0.105801 0.253262
v  0.059570 0.071047 0.186732
v  -0.096369 0.054539 0.028526
v  -0.007814 0.005015 0.016943
v  -0.060786 0.045369 -0.043731
v  -0.112394 0.047003 -0.065504
v  -0.153995 -0.006916 -0.112934
v  -0.172980 0.017037 -0.083658
v  -0.075938 0.001129 -0.121851
v  0.007814 -0.005015 -0.016943
v  -0.033159 0.013970 -0.108538
v  -0.187992 0.020187 -0.044213
v  -0.141279 0.053221 0.010229
v  0.087783 0.059625 0.026052
v  0.015942 0.003435 -0.008656
v  0.014503 0.062805 0.051635
v  0.033898 0.100866 0.102460
v  0.027674 0.116310 0.179998
v  0.056607 0.132497 0.156835
v  -0.021783 0.069895 0.146901
v  -0.015942 -0.003435 0.008656
v  -0.041178 0.031834 0.096077
v  0.094772 0.130770 0.143564
v  0.107178 0.097687 0.076877
v  -0.037045 0.055432 -0.025902
v  -0.011779 0.002698 -0.000187
v  0.012919 0.049459 -0.019655
v  0.016725 0.070305 -0.047575
v  0.040661 0.063038 -0.093063
v  0.018506 0.077344 -0.090747
v  0.059339 0.042916 -0.051994
v  0.011779 -0.002698 0.000187
v  0.058240 0.033604 -0.024389
v  -0.007889 0.078208 -0.092594
v  -0.033972 0.072072 -0.051091
v  0.000000 0.084931 0.000000
v  0.013031 0.126160 -0.048783
v  -0.014155 0.086451 -0.002059
v  -0.046223 0.123791 -0.060011
v  0.017964 0.132058 -0.089790
v  0.050099 0.100684 -0.132229
v  0.022600 0.114650 -0.138685
v  0.070846 0.105347 -0.077408
v  0.014155 0.083411 0.002059
v  0.068287 0.111493 -0.043352
v  -0.008635 0.111862 -0.141777
v  -0.042039 0.126831 -0.095758
v  0.065670 0.123791 0.037755
v  0.013866 0.086451 -0.003514
v  0.006629 0.126160 0.050056
v  0.017764 0.132058 0.089830
v  0.004316 0.100684 0.141335
v  0.032193 0.114650 0.136777
v  -0.035831 0.105347 0.098627
v  -0.013866 0.083411 0.003514
v  -0.046499 0.111493 0.066184
v  0.062234 0.111862 0.127680
v  0.075484 0.126831 0.072382
# 156 vertices

vn 0.000000 0.896746 0.442545
vn 0.000000 0.955656 0.294486
vn -0.106935 0.901926 0.418444
vn -0.274712 0.925895 0.259330
vn -0.000000 0.990745 0.135735
vn 0.274601 0.958864 0.071927
vn -0.000000 0.997146 0.075497
vn 0.275144 0.951125 0.140207
vn 0.106935 0.901926 0.418444
vn 0.274712 0.925895 0.259330
vn -0.274601 0.958864 0.071927
vn -0.275144 0.951125 0.140207
vn -0.201250 0.938974 0.278975
vn -0.213501 0.844562 0.491052
vn -0.042754 0.867019 0.496438
vn -0.162531 0.800078 0.577459
vn 0.080556 0.912621 0.400792
vn 0.300631 0.791273 0.532455
vn 0.126086 0.923479 0.362338
vn 0.249288 0.778322 0.576255
vn -0.074173 0.769165 0.634731
vn 0.156678 0.745282 0.648080
vn -0.057151 0.984887 0.163499
vn -0.109202 0.972319 0.206570
vn -0.188644 0.820294 -0.539936
vn -0.176578 0.715367 -0.676069
vn -0.276569 0.724184 -0.631718
vn 0.052752 0.749709 -0.659662
vn -0.094010 0.896877 -0.432174
vn -0.275252 0.936443 -0.217512
vn -0.058013 0.919418 -0.388980
vn -0.316483 0.910539 -0.266002
vn -0.347821 0.755975 -0.554547
vn -0.387163 0.854028 -0.347477
vn 0.164485 0.832165 -0.529571
vn 0.124122 0.806055 -0.578678
vn -0.748129 0.655508 -0.103019
vn -0.895660 0.407860 -0.177319
vn -0.911978 0.404418 -0.068854
vn -0.706559 0.620903 -0.339490
vn -0.378201 0.920917 -0.094212
vn -0.147189 0.975844 0.161442
vn -0.192316 0.974905 -0.112139
vn -0.321445 0.927134 0.192602
vn -0.897705 0.439265 0.034223
vn -0.645479 0.739904 0.189472
vn -0.221355 0.899243 -0.377311
vn -0.499025 0.804613 -0.321826
vn 0.181876 0.879842 0.439089
vn 0.125595 0.802961 0.582649
vn 0.233050 0.793179 0.562632
vn -0.087341 0.857511 0.506997
vn 0.352282 0.926408 0.132915
vn 0.124912 0.945228 0.301565
vn 0.377832 0.905496 0.193183
vn 0.102781 0.963257 0.248136
vn 0.323186 0.802961 0.500804
vn 0.420261 0.857511 0.296742
vn -0.155116 0.926408 0.343086
vn -0.130567 0.905496 0.403769
vn 0.723088 0.434322 -0.537130
vn 0.543842 0.662920 -0.514560
vn 0.758668 0.477802 -0.442863
vn 0.664235 0.703683 -0.252234
vn 0.147653 0.902622 -0.404316
vn -0.167125 0.847670 -0.503512
vn -0.001275 0.951664 -0.307137
vn -0.021338 0.797359 -0.603128
vn 0.655222 0.427161 -0.623071
vn 0.299729 0.637392 -0.709855
vn 0.163603 0.982737 -0.086380
vn 0.385297 0.902804 -0.191025
vn 0.240066 0.895136 -0.375631
vn 0.402077 0.836590 -0.372091
vn 0.346019 0.815441 -0.464032
vn 0.402341 0.903221 -0.149379
vn -0.110083 0.898999 -0.423890
vn 0.125696 0.953014 -0.275618
vn -0.061063 0.881263 -0.468665
vn 0.082109 0.968185 -0.236381
vn 0.255225 0.811577 -0.525550
vn 0.025085 0.838964 -0.543608
vn 0.267020 0.963229 -0.029820
vn 0.316785 0.945621 -0.073817
vn 0.971281 0.125268 -0.202287
vn 0.882311 0.400472 -0.247285
vn 0.977323 0.148813 -0.150648
vn 0.862558 0.498867 -0.084410
vn 0.341297 0.743467 -0.575129
vn 0.340441 0.884032 -0.320291
vn 0.527104 0.791356 -0.309705
vn 0.266063 0.779013 -0.567759
vn 0.958245 0.125142 -0.257112
vn 0.721164 0.495196 -0.484462
vn 0.386202 0.921061 -0.049954
vn 0.602423 0.795401 -0.066511
vn 0.354294 0.857511 -0.373029
vn 0.219274 0.802961 -0.554231
vn 0.092720 0.879842 -0.466134
vn 0.118808 0.793179 -0.597287
vn 0.063680 0.945228 -0.320140
vn -0.219068 0.926408 -0.306232
vn 0.052397 0.963257 -0.263419
vn -0.206829 0.905496 -0.370538
vn 0.009513 0.802961 -0.595955
vn -0.184573 0.857511 -0.480216
vn 0.319582 0.926408 -0.199088
vn 0.332884 0.905496 -0.263182
vn 0.214210 0.976787 -0.000866
vn 0.551361 0.831201 0.071460
vn 0.347747 0.924195 -0.157909
vn 0.584227 0.811059 0.029370
vn -0.071118 0.915252 -0.396555
vn -0.150567 0.715895 -0.681780
vn -0.275374 0.839995 -0.467522
vn -0.045639 0.815929 -0.576347
vn 0.597950 0.801163 -0.024385
vn 0.183432 0.913081 -0.364192
vn -0.380170 0.898940 -0.217666
vn -0.155487 0.977925 -0.139592
vn -0.178571 0.773853 -0.607670
vn -0.373491 0.656501 -0.655370
vn -0.438973 0.735063 -0.516706
vn -0.472870 0.622171 -0.623937
vn -0.392906 0.830995 -0.393793
vn -0.595570 0.777326 -0.202636
vn -0.373031 0.861212 -0.345197
vn -0.618398 0.742540 -0.257328
vn -0.558159 0.616705 -0.555098
vn -0.652975 0.671619 -0.350073
vn -0.121357 0.879519 -0.460129
vn -0.143249 0.844935 -0.515329
vn -0.005912 0.698778 0.715314
vn 0.014916 0.377579 0.925857
vn 0.126897 0.604613 0.786346
vn 0.066165 0.353519 0.933084
vn 0.249795 0.895136 0.369235
vn 0.546343 0.822901 0.156024
vn 0.295586 0.940856 0.165586
vn 0.542624 0.806220 0.235728
vn 0.122256 0.350559 0.928527
vn 0.391870 0.654729 0.646349
vn 0.022157 0.986690 0.161095
vn 0.017867 0.910016 0.414188
vn -0.011462 0.765222 0.643665
vn 0.083768 0.921739 0.378656
vn -0.063594 0.778404 0.624534
vn -0.109775 0.949255 0.294726
vn 0.200096 0.975985 -0.086107
vn 0.483681 0.837836 -0.253148
vn 0.225923 0.924289 -0.307649
vn 0.394458 0.911531 -0.116250
vn 0.044876 0.765114 0.642329
vn 0.237567 0.956902 0.167032
vn -0.049087 0.939232 -0.339755
vn -0.076855 0.992371 -0.096400
vn -0.011367 0.949255 -0.314300
vn -0.180246 0.778404 -0.601331
vn -0.222297 0.921739 -0.317776
vn -0.235730 0.765222 -0.599055
vn -0.151912 0.975985 0.156126
vn -0.349988 0.837836 0.418975
vn -0.090993 0.924289 0.370688
vn -0.319944 0.911531 0.258354
vn -0.287268 0.765114 -0.576261
vn -0.283404 0.956902 -0.063404
vn 0.175369 0.939232 0.295108
vn 0.107896 0.992371 0.059651
# 168 vertex normals

vt 0.515271 0.590001 0.000000
vt 0.421930 0.590001 0.000000
vt 0.515271 0.569134 0.000000
vt 0.428196 0.505602 0.000000
vt 0.349457 0.590001 0.000000
vt 0.282631 0.633914 0.000000
vt 0.279343 0.590001 0.000000
vt 0.355723 0.674400 0.000000
vt 0.515271 0.610867 0.000000
vt 0.428196 0.674400 0.000000
vt 0.282631 0.546088 0.000000
vt 0.355723 0.505602 0.000000
vt 0.142174 0.242485 0.000000
vt 0.008040 0.152734 0.000000
vt 0.142537 0.114012 0.000000
vt 0.006520 0.123377 0.000000
vt 0.250325 0.114316 0.000000
vt 0.349047 0.061607 0.000000
vt 0.355662 0.118285 0.000000
vt 0.237666 0.005304 0.000000
vt 0.358561 0.859224 0.000000
vt 0.439891 0.936285 0.000000
vt 0.279343 0.934561 0.000000
vt 0.005000 0.094020 0.000000
vt 0.355445 0.185171 0.000000
vt 0.249963 0.242789 0.000000
vt 0.129878 0.005000 0.000000
vt 0.409028 0.768418 0.000000
vt 0.493550 0.747769 0.000000
vt 0.493924 0.766747 0.000000
vt 0.080179 0.087861 0.000000
vt 0.027137 0.038238 0.000000
vt 0.124946 0.038069 0.000000
vt 0.343113 0.769715 0.000000
vt 0.283119 0.810851 0.000000
vt 0.279343 0.770971 0.000000
vt 0.350323 0.846366 0.000000
vt 0.494297 0.785726 0.000000
vt 0.416238 0.845068 0.000000
vt 0.281547 0.730972 0.000000
vt 0.347301 0.692841 0.000000
vt 0.413216 0.691544 0.000000
vt 0.752918 0.255647 0.000000
vt 0.787103 0.389415 0.000000
vt 0.754268 0.389605 0.000000
vt 0.885582 0.278950 0.000000
vt 0.144914 0.627535 0.000000
vt 0.074017 0.505602 0.000000
vt 0.145884 0.508593 0.000000
vt 0.006873 0.621824 0.000000
vt 0.721434 0.389795 0.000000
vt 0.619969 0.280485 0.000000
vt 0.206863 0.506685 0.000000
vt 0.262199 0.623906 0.000000
vt 0.255451 0.702999 0.000000
vt 0.142334 0.744672 0.000000
vt 0.005000 0.738296 0.000000
vt 0.133167 0.371160 0.000000
vt 0.005000 0.396893 0.000000
vt 0.005621 0.368380 0.000000
vt 0.122091 0.486299 0.000000
vt 0.324819 0.315304 0.000000
vt 0.232197 0.373318 0.000000
vt 0.226148 0.257805 0.000000
vt 0.328003 0.375406 0.000000
vt 0.006243 0.339868 0.000000
vt 0.127118 0.255647 0.000000
vt 0.322204 0.435312 0.000000
vt 0.221121 0.488458 0.000000
vt 0.639430 0.470260 0.000000
vt 0.723679 0.406939 0.000000
vt 0.658891 0.483793 0.000000
vt 0.796930 0.486868 0.000000
vt 0.805242 0.101735 0.000000
vt 0.868431 0.199408 0.000000
vt 0.809107 0.199762 0.000000
vt 0.919189 0.101027 0.000000
vt 0.868220 0.830728 0.000000
vt 0.987318 0.852363 0.000000
vt 0.868390 0.915333 0.000000
vt 0.619969 0.456727 0.000000
vt 0.758945 0.203725 0.000000
vt 0.708761 0.109324 0.000000
vt 0.955567 0.468182 0.000000
vt 0.814074 0.467259 0.000000
vt 0.859474 0.406939 0.000000
vt 0.802774 0.005133 0.000000
vt 0.916165 0.005000 0.000000
vt 0.662113 0.583213 0.000000
vt 0.747282 0.565420 0.000000
vt 0.747017 0.584400 0.000000
vt 0.668885 0.506523 0.000000
vt 0.534847 0.621385 0.000000
vt 0.596191 0.582292 0.000000
vt 0.600818 0.659141 0.000000
vt 0.532416 0.581400 0.000000
vt 0.746751 0.603380 0.000000
vt 0.666739 0.660062 0.000000
vt 0.535964 0.541499 0.000000
vt 0.602964 0.505602 0.000000
vt 0.924029 0.517347 0.000000
vt 0.870113 0.607493 0.000000
vt 0.904107 0.505602 0.000000
vt 0.789634 0.550768 0.000000
vt 0.715154 0.734003 0.000000
vt 0.618792 0.818696 0.000000
vt 0.616295 0.733621 0.000000
vt 0.670260 0.818908 0.000000
vt 0.943952 0.529093 0.000000
vt 0.950798 0.645784 0.000000
vt 0.575181 0.821698 0.000000
vt 0.532416 0.739366 0.000000
vt 0.834976 0.646357 0.000000
vt 0.760140 0.582286 0.000000
vt 0.718667 0.677954 0.000000
vt 0.627443 0.672920 0.000000
vt 0.568607 0.005883 0.000000
vt 0.693389 0.090455 0.000000
vt 0.567555 0.125874 0.000000
vt 0.694646 0.117883 0.000000
vt 0.466882 0.124991 0.000000
vt 0.374382 0.173673 0.000000
vt 0.368520 0.120700 0.000000
vt 0.478099 0.226879 0.000000
vt 0.695903 0.145311 0.000000
vt 0.578772 0.227762 0.000000
vt 0.369094 0.058229 0.000000
vt 0.467934 0.005000 0.000000
vt 0.137162 0.940697 0.000000
vt 0.028567 0.938948 0.000000
vt 0.084179 0.858315 0.000000
vt 0.016784 0.919557 0.000000
vt 0.143522 0.824873 0.000000
vt 0.187228 0.761816 0.000000
vt 0.214213 0.794562 0.000000
vt 0.091684 0.761836 0.000000
vt 0.005000 0.900166 0.000000
vt 0.041839 0.783835 0.000000
vt 0.237805 0.840145 0.000000
vt 0.188893 0.912381 0.000000
vt 0.502951 0.256589 0.000000
vt 0.600981 0.323476 0.000000
vt 0.501828 0.351052 0.000000
vt 0.601903 0.345073 0.000000
vt 0.422574 0.350110 0.000000
vt 0.349633 0.388209 0.000000
vt 0.345147 0.346490 0.000000
vt 0.431155 0.430351 0.000000
vt 0.602825 0.366669 0.000000
vt 0.510410 0.431293 0.000000
vt 0.345752 0.297310 0.000000
vt 0.423697 0.255647 0.000000
vt 0.868220 0.990513 0.000000
vt 0.910640 0.933441 0.000000
vt 0.929250 0.995000 0.000000
vt 0.925328 0.932959 0.000000
vt 0.798806 0.886551 0.000000
vt 0.763498 0.834217 0.000000
vt 0.795682 0.833404 0.000000
vt 0.736988 0.888129 0.000000
vt 0.940015 0.932477 0.000000
vt 0.987033 0.986612 0.000000
vt 0.822858 0.830728 0.000000
vt 0.851076 0.881423 0.000000
vt 0.792912 0.924711 0.000000
vt 0.846803 0.915345 0.000000
vt 0.735811 0.923238 0.000000
vt 0.736310 0.749317 0.000000
vt 0.797068 0.740430 0.000000
vt 0.736809 0.766705 0.000000
vt 0.802307 0.813584 0.000000
vt 0.847296 0.740233 0.000000
vt 0.903075 0.707378 0.000000
vt 0.907010 0.741503 0.000000
vt 0.839769 0.674614 0.000000
vt 0.735811 0.731929 0.000000
vt 0.798272 0.672920 0.000000
vt 0.906357 0.779668 0.000000
vt 0.846075 0.813552 0.000000
vt 0.601284 0.979326 0.000000
vt 0.534435 0.934394 0.000000
vt 0.593896 0.906358 0.000000
vt 0.533425 0.917028 0.000000
vt 0.644096 0.904684 0.000000
vt 0.698886 0.870203 0.000000
vt 0.703823 0.904198 0.000000
vt 0.634643 0.839315 0.000000
vt 0.532416 0.899661 0.000000
vt 0.593114 0.838842 0.000000
vt 0.704291 0.942365 0.000000
vt 0.645032 0.978007 0.000000
# 191 texture coords

g sf_plant001
s 1
f 1/1/1 2/2/2 3/3/3 
f 3/3/3 2/2/2 4/4/4 
f 5/5/5 6/6/6 7/7/7 
f 6/6/6 5/5/5 8/8/8 
f 9/9/9 2/2/2 1/1/1 
f 2/2/2 9/9/9 10/10/10 
f 5/5/5 11/11/11 12/12/12 
f 11/11/11 5/5/5 7/7/7 
f 2/2/2 5/5/5 4/4/4 
f 4/4/4 5/5/5 12/12/12 
f 10/10/10 5/5/5 2/2/2 
f 5/5/5 10/10/10 8/8/8 
f 13/13/13 14/14/14 15/15/15 
f 15/15/15 14/14/14 1/16/16 
f 16/17/17 17/18/18 18/19/19 
f 17/18/18 16/17/17 19/20/20 
f 15/21/15 20/22/21 21/23/22 
f 20/24/21 15/15/15 1/16/16 
f 16/17/17 22/25/23 23/26/24 
f 22/25/23 16/17/17 18/19/19 
f 23/26/24 15/15/15 16/17/17 
f 15/15/15 23/26/24 13/13/13 
f 16/17/17 21/27/22 19/20/20 
f 21/27/22 16/17/17 15/15/15 
f 24/28/25 25/29/26 1/30/27 
f 24/31/25 26/32/28 25/33/26 
f 27/34/29 28/35/30 29/36/31 
f 28/35/30 27/34/29 30/37/32 
f 31/38/33 24/28/25 1/30/27 
f 24/28/25 31/38/33 32/39/34 
f 33/40/35 27/34/29 29/36/31 
f 27/34/29 33/40/35 34/41/36 
f 34/41/36 26/42/28 27/34/29 
f 26/42/28 24/28/25 27/34/29 
f 32/39/34 27/34/29 24/28/25 
f 27/34/29 32/39/34 30/37/32 
f 35/43/37 36/44/38 1/45/39 
f 35/43/37 37/46/40 36/44/38 
f 38/47/41 39/48/42 40/49/43 
f 39/48/42 38/47/41 41/50/44 
f 42/51/45 35/43/37 1/45/39 
f 35/43/37 42/51/45 43/52/46 
f 38/47/41 44/53/47 45/54/48 
f 44/53/47 38/47/41 40/49/43 
f 38/47/41 37/55/40 35/56/37 
f 37/55/40 38/47/41 45/54/48 
f 38/47/41 43/57/46 41/50/44 
f 43/57/46 38/47/41 35/56/37 
f 46/58/49 47/59/50 1/60/51 
f 46/58/49 48/61/52 47/59/50 
f 49/62/53 50/63/54 51/64/55 
f 50/63/54 49/62/53 52/65/56 
f 53/66/57 46/58/49 1/60/51 
f 46/58/49 53/66/57 54/67/58 
f 50/63/54 55/68/59 56/69/60 
f 55/68/59 50/63/54 52/65/56 
f 50/63/54 48/61/52 46/58/49 
f 48/61/52 50/63/54 56/69/60 
f 54/67/58 50/63/54 46/58/49 
f 50/63/54 54/67/58 51/64/55 
f 1/70/61 57/71/62 58/72/63 
f 59/73/64 58/72/63 57/71/62 
f 60/74/65 61/75/66 62/76/67 
f 61/75/66 60/74/65 63/77/68 
f 57/78/62 64/79/69 65/80/70 
f 64/81/69 57/71/62 1/70/61 
f 60/74/65 66/82/71 67/83/72 
f 66/82/71 60/74/65 62/76/67 
f 57/84/62 67/85/72 59/86/64 
f 67/83/72 57/87/62 60/74/65 
f 65/88/70 60/74/65 57/87/62 
f 60/74/65 65/88/70 63/77/68 
f 68/89/73 69/90/74 1/91/75 
f 69/90/74 68/89/73 70/92/76 
f 71/93/77 72/94/78 73/95/79 
f 72/94/78 71/93/77 74/96/80 
f 68/89/73 75/97/81 76/98/82 
f 75/97/81 68/89/73 1/91/75 
f 72/94/78 77/99/83 78/100/84 
f 77/99/83 72/94/78 74/96/80 
f 72/94/78 70/92/76 68/89/73 
f 70/92/76 72/94/78 78/100/84 
f 76/98/82 72/94/78 68/89/73 
f 72/94/78 76/98/82 73/95/79 
f 1/101/85 79/102/86 80/103/87 
f 81/104/88 80/103/87 79/102/86 
f 82/105/89 83/106/90 84/107/91 
f 83/106/90 82/105/89 85/108/92 
f 79/102/86 86/109/93 87/110/94 
f 86/109/93 79/102/86 1/101/85 
f 88/111/95 84/107/91 83/106/90 
f 84/107/91 88/111/95 89/112/96 
f 84/113/91 89/114/96 81/104/88 
f 81/104/88 79/102/86 84/113/91 
f 87/115/94 84/107/91 79/116/86 
f 84/107/91 87/115/94 82/105/89 
f 90/117/97 91/118/98 92/119/99 
f 92/119/99 91/118/98 1/120/100 
f 93/121/101 94/122/102 95/123/103 
f 94/122/102 93/121/101 96/124/104 
f 92/119/99 97/125/105 98/126/106 
f 97/125/105 92/119/99 1/120/100 
f 99/127/107 93/121/101 95/123/103 
f 93/121/101 99/127/107 100/128/108 
f 90/117/97 93/121/101 100/128/108 
f 93/121/101 90/117/97 92/119/99 
f 93/121/101 98/126/106 96/124/104 
f 98/126/106 93/121/101 92/119/99 
f 101/129/109 102/130/110 103/131/111 
f 103/131/111 102/130/110 1/132/112 
f 104/133/113 105/134/114 106/135/115 
f 105/134/114 104/133/113 107/136/116 
f 103/131/111 108/137/117 109/138/118 
f 108/137/117 103/131/111 1/132/112 
f 104/133/113 110/139/119 111/140/120 
f 110/139/119 104/133/113 106/135/115 
f 104/133/113 111/140/120 101/129/109 
f 104/133/113 101/129/109 103/131/111 
f 104/133/113 103/131/111 107/136/116 
f 107/136/116 103/131/111 109/138/118 
f 112/141/121 113/142/122 114/143/123 
f 113/142/122 1/144/124 114/143/123 
f 115/145/125 116/146/126 117/147/127 
f 116/146/126 115/145/125 118/148/128 
f 119/149/129 114/143/123 1/144/124 
f 114/143/123 119/149/129 120/150/130 
f 115/145/125 121/151/131 122/152/132 
f 121/151/131 115/145/125 117/147/127 
f 115/145/125 122/152/132 112/141/121 
f 112/141/121 114/143/123 115/145/125 
f 120/150/130 115/145/125 114/143/123 
f 115/145/125 120/150/130 118/148/128 
f 123/153/133 124/154/134 125/155/135 
f 125/155/135 124/154/134 1/156/136 
f 126/157/137 127/158/138 128/159/139 
f 127/158/138 126/157/137 129/160/140 
f 125/155/135 130/161/141 131/162/142 
f 130/161/141 125/155/135 1/156/136 
f 126/157/137 132/163/143 133/164/144 
f 132/163/143 126/157/137 128/159/139 
f 125/165/135 133/164/144 123/166/133 
f 133/164/144 125/165/135 126/157/137 
f 131/167/142 126/157/137 125/165/135 
f 126/157/137 131/167/142 129/160/140 
f 134/168/145 135/169/146 136/170/147 
f 136/170/147 135/169/146 137/171/148 
f 138/172/149 139/173/150 140/174/151 
f 139/173/150 138/172/149 141/175/152 
f 142/176/153 135/169/146 134/168/145 
f 135/169/146 142/176/153 143/177/154 
f 138/172/149 144/178/155 145/179/156 
f 144/178/155 138/172/149 140/174/151 
f 137/171/148 135/169/146 138/172/149 
f 137/171/148 138/172/149 145/179/156 
f 135/169/146 143/177/154 141/175/152 
f 135/169/146 141/175/152 138/172/149 
f 146/180/157 147/181/158 148/182/159 
f 148/182/159 147/181/158 134/183/160 
f 149/184/161 150/185/162 151/186/163 
f 150/185/162 149/184/161 152/187/164 
f 148/182/159 153/188/165 154/189/166 
f 153/188/165 148/182/159 134/183/160 
f 149/184/161 155/190/167 156/191/168 
f 155/190/167 149/184/161 151/186/163 
f 149/184/161 156/191/168 146/180/157 
f 146/180/157 148/182/159 149/184/161 
f 148/182/159 152/187/164 149/184/161 
f 152/187/164 148/182/159 154/189/166 
# 168 faces

